<?xml version="1.0" standalone="no"?>
<!DOCTYPE svg PUBLIC "-//W3C//DTD SVG 20010904//EN"
 "http://www.w3.org/TR/2001/REC-SVG-20010904/DTD/svg10.dtd">
<svg version="1.0" xmlns="http://www.w3.org/2000/svg"
 width="1024.000000pt" height="1024.000000pt" viewBox="0 0 1024.000000 1024.000000"
 preserveAspectRatio="xMidYMid meet">

<g transform="translate(0.000000,1024.000000) scale(0.100000,-0.100000)"
fill="#000000" stroke="none">
<path d="M4940 9501 c-189 -16 -237 -22 -375 -46 -176 -31 -262 -53 -447 -115
-280 -95 -492 -197 -743 -362 -202 -132 -346 -249 -520 -423 -437 -438 -721
-952 -859 -1555 -92 -404 -108 -874 -41 -1264 87 -513 350 -1062 711 -1486
457 -537 1074 -907 1764 -1059 412 -91 967 -94 1378 -6 506 107 953 316 1352
634 124 98 371 340 473 464 409 493 663 1091 718 1692 15 155 5 583 -15 731
-125 889 -604 1684 -1321 2194 -355 252 -730 425 -1131 521 -133 31 -329 64
-439 73 -135 11 -411 14 -505 7z m250 -306 c37 -19 50 -43 50 -92 0 -49 -21
-78 -65 -93 -43 -14 -97 1 -120 33 -20 28 -19 97 1 125 29 42 84 53 134 27z
m-323 -47 c18 -15 27 -76 15 -102 -13 -29 -59 -40 -88 -21 -23 15 -37 64 -28
100 10 40 65 52 101 23z m637 -4 c19 -18 20 -39 5 -83 -15 -42 -42 -56 -80
-41 -26 11 -29 17 -29 57 0 63 13 83 55 83 18 0 41 -7 49 -16z m-943 -43 c23
-24 29 -38 29 -73 0 -24 -5 -49 -11 -55 -7 -7 -7 -22 0 -49 5 -22 28 -133 52
-247 48 -241 47 -261 -19 -255 -34 3 -38 6 -48 43 -15 54 -71 301 -92 403 -10
51 -21 82 -29 82 -15 0 -43 51 -43 80 0 28 26 77 47 89 35 20 83 13 114 -18z
m1290 0 c46 -47 37 -130 -18 -152 -5 -2 -16 -38 -25 -79 -9 -41 -33 -147 -53
-235 -19 -88 -38 -170 -40 -182 -7 -28 -40 -46 -71 -39 -48 12 -47 38 11 300
51 232 53 246 39 275 -18 37 -12 78 17 116 17 20 29 25 65 25 37 0 51 -6 75
-29z m331 -135 c17 -24 8 -66 -17 -82 -51 -34 -97 7 -81 71 11 44 72 50 98 11z
m-2000 7 c26 -24 23 -69 -7 -89 -30 -20 -58 -11 -73 22 -16 33 -15 44 5 66 20
22 51 23 75 1z m720 -70 c20 -18 24 -73 6 -91 -21 -21 -66 -14 -83 12 -38 58
27 125 77 79z m536 1 c29 -20 31 -79 3 -94 -28 -14 -57 -12 -71 6 -20 23 -16
75 5 90 24 18 36 18 63 -2z m-1559 -31 c46 -38 42 -126 -8 -152 -81 -44 -165
47 -120 130 20 39 92 51 128 22z m2632 -12 c38 -38 40 -91 4 -126 -36 -36 -88
-34 -127 5 -26 27 -30 36 -25 68 13 78 94 107 148 53z m-2965 -227 c36 -54
-29 -122 -76 -79 -22 20 -27 74 -8 93 21 21 66 14 84 -14z m1667 12 c54 -20
103 -60 133 -112 36 -61 39 -159 7 -219 -53 -99 -171 -152 -276 -121 -100 29
-167 112 -173 212 -4 68 12 116 55 166 64 75 166 105 254 74z m1606 -17 c13
-24 13 -29 -2 -53 -12 -18 -26 -26 -45 -26 -35 0 -52 17 -52 51 0 60 70 79 99
28z m-2515 -72 c23 -17 57 -146 45 -169 -12 -22 -71 -24 -88 -4 -15 18 -51
115 -51 138 0 40 57 62 94 35z m1751 -7 c16 -18 16 -24 5 -67 -18 -65 -46
-119 -66 -127 -24 -9 -69 16 -72 42 -4 25 23 115 44 150 18 28 64 29 89 2z
m-2804 -129 c48 -48 35 -118 -29 -150 -85 -44 -163 80 -95 151 37 39 84 38
124 -1z m3900 0 c51 -51 32 -125 -38 -152 -56 -21 -113 23 -113 85 1 89 90
128 151 67z m-3181 -73 c25 -13 55 -39 68 -58 20 -29 23 -45 20 -96 -4 -69
-36 -122 -87 -149 -26 -13 -30 -21 -36 -85 -7 -69 -7 -70 -37 -70 l-30 0 4 57
3 56 -49 26 c-138 71 -139 260 -2 322 54 25 92 24 146 -3z m2506 -8 c63 -40
96 -127 74 -195 -15 -46 -61 -99 -100 -115 l-30 -12 0 -107 c0 -119 -10 -145
-51 -139 -24 3 -24 4 -27 134 -3 129 -3 132 -26 138 -13 3 -39 23 -59 45 -41
46 -56 109 -38 163 13 41 64 91 106 107 41 14 110 6 151 -19z m-1816 -160 c83
-16 155 -54 221 -117 70 -67 104 -119 130 -204 18 -58 19 -119 19 -1528 0
-1606 3 -1516 -58 -1621 -152 -263 -508 -309 -726 -94 -83 81 -126 171 -141
296 -6 42 -11 51 -49 77 l-42 29 -190 4 -189 3 -68 32 c-145 69 -247 208 -267
365 -12 96 -3 265 16 295 22 35 71 56 120 50 94 -10 144 -84 144 -211 0 -91
18 -134 79 -189 46 -42 93 -57 176 -57 94 0 131 9 143 35 18 39 74 95 116 117
24 12 68 23 106 26 78 5 139 -19 199 -78 96 -95 112 -215 47 -343 -34 -69 -36
-74 -26 -130 16 -97 67 -147 152 -147 62 0 109 28 136 80 22 44 22 49 22 452
l0 408 -357 0 c-197 0 -396 5 -443 10 -108 12 -179 47 -280 136 -106 94 -130
104 -270 104 l-116 0 -44 -46 c-81 -83 -165 -108 -262 -80 -151 44 -233 218
-169 361 75 170 281 218 409 95 l41 -40 163 0 c232 0 286 -17 418 -134 125
-110 99 -105 532 -106 l373 -1 3 225 2 226 -47 0 c-71 1 -121 9 -188 31 -78
25 -128 59 -226 153 -44 42 -91 81 -105 86 -15 6 -189 10 -416 10 l-390 0 -27
-32 c-102 -122 -163 -158 -270 -158 -146 1 -272 129 -270 275 1 71 13 108 56
168 38 54 101 94 175 109 46 10 63 9 109 -6 29 -10 67 -28 84 -39 29 -22 38
-22 478 -25 l447 -4 0 374 c0 279 4 386 14 423 42 160 169 287 327 329 66 18
109 19 179 6z m1089 0 c122 -20 257 -116 324 -230 53 -91 57 -132 57 -532 l0
-369 443 1 444 1 44 29 c180 120 420 -15 422 -236 2 -152 -126 -277 -283 -276
-104 1 -166 36 -241 138 l-40 54 -348 0 c-191 0 -376 -3 -410 -7 -62 -6 -64
-7 -159 -95 -135 -126 -252 -178 -397 -178 l-55 0 0 -225 0 -225 370 0 c428 0
400 -6 521 105 38 35 100 79 136 97 l67 33 190 3 190 4 39 33 c65 56 103 70
187 70 64 0 82 -4 122 -27 186 -110 182 -382 -6 -473 -73 -35 -123 -40 -192
-20 -47 13 -69 27 -112 71 l-52 54 -121 0 c-80 0 -131 -5 -153 -14 -19 -8 -69
-46 -111 -85 -154 -143 -187 -151 -692 -151 l-383 0 0 -422 c0 -402 1 -425 20
-455 56 -93 209 -80 267 22 34 60 31 122 -9 193 -30 51 -33 65 -33 137 1 63 6
90 24 127 64 130 201 189 332 143 52 -19 113 -74 141 -129 l20 -38 111 4 c120
5 151 15 201 65 47 46 66 98 66 183 0 85 25 149 71 183 37 27 108 33 147 13
52 -27 62 -59 62 -203 0 -199 -34 -296 -140 -404 -104 -105 -178 -129 -407
-129 l-161 0 -43 -32 c-40 -31 -44 -38 -60 -115 -24 -110 -63 -186 -130 -254
-150 -150 -390 -183 -568 -76 -98 59 -179 172 -206 290 -14 59 -15 238 -13
1530 l3 1462 21 56 c59 153 166 252 314 291 78 20 87 21 169 8z m-2778 -59
c41 -41 39 -83 -5 -127 -26 -26 -43 -34 -69 -34 -72 0 -116 74 -83 138 20 39
41 51 89 52 29 0 45 -7 68 -29z m4470 0 c37 -38 39 -88 5 -128 -20 -23 -32
-28 -70 -28 -56 0 -85 25 -93 82 -4 32 -1 44 22 71 37 44 93 45 136 3z m-3860
-143 c59 -49 72 -75 55 -109 -8 -18 -21 -25 -47 -27 -31 -3 -44 4 -88 44 -28
25 -51 55 -51 66 0 23 43 68 64 68 8 0 39 -19 67 -42z m3235 -3 c3 -13 3 -32
0 -42 -9 -28 -99 -93 -129 -93 -30 0 -57 24 -57 51 0 23 75 108 105 119 30 11
74 -8 81 -35z m321 -126 c71 -60 47 -180 -44 -210 -70 -23 -153 57 -139 135
17 88 117 129 183 75z m-3851 -13 c30 -30 34 -41 34 -84 0 -57 -22 -92 -69
-112 -97 -40 -196 74 -147 168 22 43 54 62 104 62 37 0 50 -6 78 -34z m4332
-44 c18 -23 15 -49 -8 -72 -47 -47 -114 1 -90 64 14 38 70 43 98 8z m-4876 1
c22 -20 23 -51 1 -75 -45 -50 -125 11 -88 68 18 28 60 32 87 7z m1050 -214
c66 -33 113 -127 102 -203 -19 -123 -108 -194 -230 -184 -71 6 -125 44 -159
111 -93 187 98 371 287 276z m2888 6 c83 -43 131 -146 110 -235 -14 -56 -64
-120 -114 -144 -39 -18 -121 -21 -163 -5 -67 25 -132 119 -133 189 0 104 56
178 160 211 31 10 106 1 140 -16z m-4079 -64 c82 -83 -32 -213 -124 -141 -31
25 -41 62 -27 106 23 69 99 87 151 35z m5203 -2 c56 -67 19 -154 -66 -154 -82
0 -118 96 -59 156 41 41 90 40 125 -2z m-4629 -112 c66 -35 81 -47 83 -69 4
-35 -29 -59 -66 -48 -50 14 -157 62 -174 78 -41 35 -2 100 52 87 14 -4 61 -25
105 -48z m4085 33 c40 -40 20 -67 -87 -114 -110 -49 -153 -46 -153 9 0 30 22
47 110 89 86 41 103 43 130 16z m-4789 -239 c50 -50 37 -121 -28 -147 -96 -41
-177 73 -104 147 22 21 39 29 66 29 27 0 44 -8 66 -29z m5469 -6 c36 -38 33
-90 -8 -126 -55 -50 -125 -31 -138 36 -7 40 10 90 35 105 32 19 86 11 111 -15z
m-5318 -100 c18 -40 -3 -75 -45 -75 -40 0 -57 15 -57 50 0 35 17 50 57 50 26
0 36 -6 45 -25z m5132 9 c37 -37 3 -98 -50 -92 -18 2 -34 13 -43 29 -13 24
-13 29 2 53 20 30 66 35 91 10z m-5359 -265 c31 -30 27 -95 -8 -125 -59 -50
-147 -15 -147 58 1 80 97 122 155 67z m5599 0 c20 -16 26 -29 26 -59 0 -30 -6
-43 -26 -59 -33 -26 -55 -26 -83 -3 -33 26 -38 81 -11 115 26 32 57 35 94 6z
m-5480 -49 c62 -23 55 -100 -9 -100 -58 0 -81 42 -49 88 17 25 22 26 58 12z
m5336 -10 c11 -11 20 -27 20 -35 0 -43 -75 -71 -114 -42 -26 19 -18 68 14 84
35 18 57 16 80 -7z m-4276 -240 c44 -43 10 -120 -52 -122 -44 -1 -72 26 -72
72 0 71 72 100 124 50z m3234 -6 c29 -32 28 -59 -3 -89 -47 -47 -125 -20 -125
43 0 31 15 54 45 70 26 15 55 6 83 -24z m-2648 -5 c55 -31 83 -87 78 -154 -8
-100 -75 -153 -181 -142 -43 4 -56 10 -88 45 -60 63 -62 147 -7 217 44 56 132
71 198 34z m2111 -2 c108 -73 106 -228 -4 -281 -117 -55 -249 34 -235 159 14
117 146 185 239 122z m-3956 -72 c27 -26 31 -54 14 -88 -16 -30 -28 -37 -68
-37 -45 0 -71 24 -71 67 0 41 38 83 75 83 14 0 37 -11 50 -25z m5740 0 c50
-49 20 -125 -50 -125 -68 0 -98 68 -54 124 27 34 71 35 104 1z m-5466 -47 c14
-24 14 -28 -4 -48 -17 -19 -28 -20 -114 -18 l-96 3 -3 33 c-6 61 -2 63 105 60
94 -3 98 -4 112 -30z m5299 -15 l-3 -48 -82 -3 c-111 -4 -144 17 -122 76 8 21
14 22 109 22 l101 0 -3 -47z m-5561 -345 c17 -15 23 -33 23 -62 0 -53 -30 -86
-79 -86 -43 1 -66 17 -81 54 -12 32 7 88 37 105 30 17 75 13 100 -11z m5737
-9 c31 -37 33 -77 5 -113 -17 -21 -29 -26 -65 -26 -58 0 -94 32 -94 85 0 82
101 117 154 54z m-5563 -29 c12 -7 19 -21 19 -40 0 -35 -23 -50 -77 -50 -44 0
-63 14 -63 46 0 43 73 69 121 44z m5360 0 c22 -12 26 -59 7 -78 -7 -7 -31 -12
-55 -12 -43 0 -63 17 -63 54 0 39 65 60 111 36z m97 -335 c24 -7 52 -52 52
-85 0 -26 -18 -61 -39 -77 -17 -13 -69 -17 -96 -7 -21 8 -47 60 -41 82 2 9 7
29 10 44 4 16 18 34 34 42 26 15 32 15 80 1z m-5547 -14 c19 -15 24 -29 24
-66 0 -39 -5 -51 -28 -71 -15 -13 -39 -24 -53 -24 -32 0 -84 51 -84 82 1 77
86 124 141 79z m5387 -8 c15 -21 16 -55 0 -71 -17 -17 -78 -15 -100 5 -42 38
-3 100 57 88 17 -3 36 -13 43 -22z m-5224 1 c45 -44 -23 -109 -88 -85 -31 12
-36 54 -9 83 20 22 76 24 97 2z m4741 -154 c22 -11 46 -19 53 -20 28 0 62 -33
62 -59 0 -58 -29 -63 -137 -24 -87 31 -107 55 -79 98 20 30 46 31 101 5z
m-4257 -2 c16 -16 15 -53 0 -66 -18 -15 -147 -62 -169 -62 -29 0 -52 42 -39
74 5 15 15 28 22 30 7 2 36 10 63 19 62 19 107 21 123 5z m-528 -178 c22 -12
42 -64 33 -88 -22 -64 -94 -82 -140 -36 -21 21 -24 32 -19 62 3 20 15 45 27
55 23 19 70 22 99 7z m5315 -15 c49 -48 17 -135 -50 -135 -50 0 -80 29 -80 78
0 78 77 111 130 57z m-632 -91 c18 -9 103 -59 190 -111 133 -80 163 -94 190
-90 39 6 92 -14 106 -41 19 -35 13 -89 -13 -119 -19 -22 -33 -28 -64 -28 -47
0 -78 23 -99 73 -10 24 -19 32 -40 32 -14 0 -47 13 -72 29 -183 114 -277 175
-283 185 -13 20 -9 45 12 66 24 24 32 25 73 4z m-4068 -14 c29 -32 13 -64 -54
-104 -82 -50 -121 -45 -121 14 0 34 7 42 65 78 58 37 85 40 110 12z m-446
-191 c34 -12 61 -53 61 -92 0 -32 -32 -71 -70 -87 -58 -24 -120 22 -120 88 0
43 14 68 48 86 33 19 41 19 81 5z m652 -80 c41 -41 24 -62 -207 -241 -65 -52
-108 -78 -125 -78 -21 0 -28 -7 -35 -32 -12 -42 -68 -81 -104 -73 -14 3 -37
19 -52 36 -37 39 -37 79 0 120 24 27 37 33 75 34 41 2 60 12 169 92 171 125
228 163 244 163 8 0 23 -9 35 -21z m3710 -51 c99 -69 116 -96 81 -130 -27 -27
-50 -21 -145 41 -70 46 -97 74 -97 100 0 16 38 51 56 51 8 0 55 -28 105 -62z
m-673 -110 c7 -7 12 -36 12 -65 0 -49 2 -54 28 -64 34 -13 79 -55 99 -93 19
-37 19 -116 -1 -154 -62 -119 -235 -121 -296 -3 -24 48 -25 82 -4 122 14 28
18 30 55 24 64 -11 71 1 68 120 -3 118 6 146 39 113z m-2458 -118 l5 -115 50
0 c42 0 51 -3 62 -25 8 -15 12 -43 10 -69 -12 -112 -137 -176 -236 -121 -68
39 -98 108 -80 190 13 63 49 106 100 121 l39 12 0 57 c0 61 5 72 30 68 12 -3
16 -25 20 -118z m3512 21 c27 -24 33 -36 33 -71 0 -35 -6 -47 -33 -71 -18 -16
-41 -29 -52 -29 -99 0 -136 138 -49 186 37 21 66 16 101 -15z m-2203 -251
c139 -70 173 -238 75 -367 -56 -73 -172 -102 -261 -63 -117 50 -169 170 -132
303 17 64 80 123 159 148 36 12 117 1 159 -21z m1906 -37 c37 -38 35 -95 -5
-135 -27 -26 -36 -30 -67 -25 -53 9 -78 38 -78 91 0 92 87 132 150 69z m-3898
12 c12 -9 27 -32 32 -52 20 -71 -37 -134 -108 -118 -76 16 -96 123 -32 172 22
17 82 16 108 -2z m1088 -88 c20 -16 18 -50 -10 -144 -16 -55 -36 -70 -81 -59
-20 5 -24 12 -24 44 0 45 26 130 48 155 18 20 42 22 67 4z m1677 -4 c9 -10 25
-50 36 -90 18 -63 18 -74 5 -92 -16 -24 -65 -28 -82 -7 -17 20 -52 152 -45
170 5 12 41 32 65 35 3 1 13 -7 21 -16z m-1372 -43 c25 0 28 -41 15 -156 -10
-90 -18 -121 -31 -131 -41 -30 -84 -7 -84 45 1 27 23 195 30 219 3 13 36 33
47 29 8 -3 19 -6 23 -6z m1054 -9 c10 -11 20 -39 22 -63 3 -24 10 -76 16 -116
10 -65 9 -74 -7 -92 -23 -25 -50 -25 -74 -1 -14 14 -21 46 -31 135 -12 108
-11 118 5 136 23 25 47 25 69 1z m-2162 -168 c33 -30 12 -103 -30 -103 -48 0
-70 76 -30 104 28 20 37 20 60 -1z m3280 -10 c35 -32 12 -85 -37 -85 -48 0
-72 54 -39 86 20 21 53 20 76 -1z m-299 -155 c55 -64 18 -158 -64 -158 -73 0
-109 65 -77 136 24 52 103 64 141 22z m-2628 -3 c33 -32 35 -98 3 -132 -65
-69 -182 25 -136 110 28 53 92 64 133 22z m1017 -112 c27 -24 23 -69 -7 -89
-23 -15 -27 -15 -50 0 -19 12 -25 25 -25 51 0 51 45 72 82 38z m546 5 c7 -7
12 -26 12 -43 0 -53 -43 -73 -82 -38 -35 32 -15 93 30 93 16 0 33 -5 40 -12z
m-1263 -88 c23 -25 13 -67 -20 -82 -21 -9 -28 -8 -45 7 -22 20 -27 64 -8 83
18 18 53 14 73 -8z m1982 12 c24 -15 26 -59 4 -81 -26 -26 -45 -27 -71 -1 -22
22 -25 42 -10 71 11 19 54 26 77 11z m-1588 -48 c19 -23 22 -35 18 -71 -6 -60
-38 -93 -89 -93 -44 0 -82 16 -73 31 4 5 1 8 -6 7 -15 -4 -31 50 -24 83 6 27
37 61 65 72 31 13 85 -2 109 -29z m1272 7 c40 -41 41 -98 1 -142 -24 -26 -36
-32 -72 -32 -36 0 -48 6 -72 32 -85 95 53 232 143 142z m-661 -56 c37 -19 50
-43 50 -94 0 -60 -38 -101 -95 -101 -57 0 -73 7 -90 41 -21 40 -19 92 6 123
36 46 80 56 129 31z m-331 -31 c20 -15 23 -23 18 -62 -7 -66 -54 -94 -92 -55
-22 22 -15 101 11 120 23 17 35 16 63 -3z m641 -14 c34 -54 -19 -144 -66 -112
-30 20 -45 97 -23 119 15 15 78 10 89 -7z"/>
<path d="M4522 7870 c-33 -15 -47 -29 -62 -62 -18 -40 -20 -68 -20 -429 0
-267 4 -397 12 -420 35 -103 120 -171 216 -173 l57 -1 2 470 c1 292 -2 487 -8
515 -12 52 -40 87 -86 106 -43 18 -60 17 -111 -6z"/>
<path d="M5631 7873 c-19 -10 -44 -31 -55 -46 -21 -28 -21 -41 -24 -538 l-3
-509 34 0 c65 0 137 29 181 73 69 69 71 85 71 532 0 372 -1 392 -20 424 -42
71 -119 98 -184 64z"/>
<path d="M8720 2576 c-111 -24 -184 -78 -229 -168 -52 -103 -40 -212 31 -293
47 -53 111 -85 241 -119 162 -43 190 -61 190 -117 0 -58 -71 -109 -153 -109
-66 0 -111 20 -161 70 -44 45 -41 44 -90 30 -44 -12 -87 -56 -95 -97 -5 -26 0
-37 32 -73 127 -140 410 -161 562 -40 124 97 146 282 47 397 -45 53 -112 85
-253 122 -124 33 -157 49 -174 87 -9 19 -8 32 4 58 40 83 187 89 280 11 16
-14 36 -25 44 -25 33 0 95 42 110 74 15 30 15 36 0 65 -51 97 -237 158 -386
127z"/>
<path d="M3623 2565 c-55 -23 -53 -8 -55 -490 l-2 -447 27 -24 c40 -34 90 -32
128 6 l30 29 -3 446 -3 446 -25 19 c-33 25 -62 29 -97 15z"/>
<path d="M4238 2564 c-162 -38 -297 -167 -349 -333 -26 -84 -29 -223 -6 -299
71 -233 301 -383 529 -344 300 52 480 363 378 656 -36 106 -124 214 -222 274
-82 50 -227 71 -330 46z m219 -213 c227 -115 218 -442 -15 -549 -129 -58 -279
5 -353 148 -32 63 -33 184 -1 255 67 147 236 214 369 146z"/>
<path d="M7313 2565 c-124 -27 -217 -90 -288 -194 -88 -130 -114 -272 -76
-421 62 -247 277 -397 517 -361 189 28 331 147 394 331 26 76 31 217 11 290
-51 179 -180 311 -346 355 -71 18 -129 18 -212 0z m180 -201 c60 -20 131 -84
165 -148 23 -44 27 -63 27 -136 0 -73 -4 -92 -27 -136 -50 -96 -157 -164 -257
-164 -92 0 -194 67 -241 159 -79 155 -14 342 145 417 59 28 122 31 188 8z"/>
<path d="M1356 2548 c-20 -18 -48 -89 -122 -303 -52 -154 -118 -342 -145 -418
-56 -158 -60 -187 -23 -224 22 -22 32 -25 70 -20 60 6 80 27 106 111 12 39 25
75 29 80 4 4 75 9 158 10 l151 1 25 -75 c28 -83 39 -101 72 -118 39 -21 82
-14 115 18 25 25 29 35 23 62 -4 17 -70 217 -146 442 -156 460 -154 456 -239
456 -36 0 -55 -6 -74 -22z m117 -448 c20 -65 37 -124 37 -130 0 -6 -33 -10
-86 -10 -65 0 -85 3 -81 13 2 6 22 65 43 130 21 64 41 117 44 117 3 0 22 -54
43 -120z"/>
<path d="M1975 2545 l-25 -24 0 -446 0 -446 25 -24 c34 -35 93 -34 129 1 l26
27 0 448 0 448 -26 20 c-38 30 -98 28 -129 -4z"/>
<path d="M2763 2546 l-28 -24 0 -447 0 -447 28 -24 c40 -34 99 -33 132 2 25
26 25 30 25 205 l0 179 135 0 135 0 0 -184 0 -185 26 -20 c46 -36 134 -18 150
31 4 13 7 218 7 456 l0 433 -23 24 c-30 32 -95 34 -133 4 -26 -20 -27 -20 -29
-187 l-3 -167 -130 0 -130 0 -3 167 c-2 167 -3 167 -29 187 -36 29 -94 28
-130 -3z"/>
<path d="M4950 2559 c-13 -5 -28 -15 -32 -22 -4 -7 -8 -214 -8 -460 l0 -448
25 -24 c36 -37 97 -35 136 4 l29 29 0 137 c0 105 3 136 13 133 6 -3 51 -60 99
-129 123 -175 147 -199 201 -199 48 0 91 25 100 59 7 27 -21 80 -107 203 l-75
107 43 19 c55 25 113 83 140 141 29 64 29 178 -1 243 -44 97 -139 173 -253
203 -59 15 -275 18 -310 4z m259 -198 c48 -1 57 -5 92 -40 34 -34 39 -44 39
-85 0 -39 -6 -52 -34 -84 -34 -36 -36 -37 -120 -41 l-86 -3 0 124 c0 69 2 127
5 130 3 3 16 4 28 3 12 -1 46 -3 76 -4z"/>
<path d="M5719 2551 l-24 -19 -3 -434 c-2 -238 0 -443 3 -455 16 -64 99 -84
154 -37 l31 26 0 444 0 445 -25 24 c-31 32 -101 35 -136 6z"/>
<path d="M6188 2561 c-110 -5 -141 -9 -157 -23 -41 -35 -39 -101 4 -144 l24
-24 236 0 c129 0 235 -3 235 -6 0 -3 -45 -58 -99 -122 -141 -166 -380 -460
-408 -501 -37 -55 -30 -112 18 -136 42 -22 717 -22 759 0 58 30 67 95 21 147
l-29 33 -243 5 -242 5 54 64 c30 36 99 119 154 186 345 422 325 395 325 434 0
27 -7 44 -26 62 -25 24 -26 24 -257 25 -128 0 -294 -2 -369 -5z"/>
<path d="M8085 2545 l-25 -24 0 -445 0 -444 31 -26 c36 -31 73 -33 116 -6 22
13 34 29 38 52 3 18 5 221 3 451 l-3 419 -28 24 c-39 33 -99 33 -132 -1z"/>
<path d="M3145 1211 c-173 -42 -234 -251 -112 -383 62 -67 185 -90 266 -48 46
23 57 45 36 76 -17 26 -44 30 -77 13 -30 -16 -95 -13 -124 6 -57 37 -78 109
-49 165 33 65 91 84 176 58 34 -10 42 -9 59 7 39 35 16 74 -57 101 -42 14 -72
16 -118 5z"/>
<path d="M3590 1211 c-145 -44 -211 -195 -145 -328 31 -62 81 -102 148 -120
175 -45 324 140 252 315 -39 96 -163 161 -255 133z m111 -117 c20 -10 38 -32
51 -61 19 -43 19 -47 3 -89 -23 -62 -63 -88 -123 -81 -39 4 -53 12 -80 44 -31
34 -33 43 -29 87 4 41 11 55 41 83 41 38 87 43 137 17z"/>
<path d="M4008 1209 c-16 -9 -18 -30 -18 -217 0 -149 3 -211 12 -220 17 -17
289 -17 306 0 19 19 14 55 -10 72 -16 12 -47 16 -115 16 l-93 0 0 164 c0 159
-1 165 -22 180 -26 18 -36 19 -60 5z"/>
<path d="M5543 1206 c-63 -20 -101 -52 -130 -109 -91 -176 53 -376 243 -337
67 14 106 46 97 80 -9 35 -45 45 -92 27 -53 -22 -95 -13 -136 28 -43 43 -50
85 -25 142 15 35 28 48 66 64 44 20 48 20 88 5 54 -21 69 -20 91 4 56 62 -91
132 -202 96z"/>
<path d="M6295 1200 c-22 -24 -22 -22 64 -245 41 -106 77 -185 88 -192 12 -8
29 -10 48 -5 28 8 35 20 87 152 32 79 67 171 80 206 22 61 22 63 4 83 -25 27
-61 27 -81 -1 -8 -13 -34 -80 -57 -150 -23 -71 -45 -128 -49 -128 -4 0 -25 57
-48 128 -22 70 -47 137 -56 150 -20 27 -56 29 -80 2z"/>
<path d="M4430 1191 c-6 -12 -10 -97 -10 -206 0 -109 4 -194 10 -206 10 -17
22 -19 148 -19 149 0 162 4 162 52 0 39 -33 50 -130 42 l-78 -7 -7 117 c-4 64
-5 139 -3 165 3 27 1 56 -4 65 -13 24 -75 21 -88 -3z"/>
<path d="M4886 1194 c-13 -13 -16 -45 -16 -199 0 -101 4 -195 10 -209 l10 -26
178 0 c187 0 202 3 202 46 0 37 -21 43 -156 46 l-129 3 -3 43 -3 42 98 0 c108
0 123 6 123 52 0 39 -25 48 -129 48 l-91 0 0 35 0 35 99 0 c125 0 159 7 178
37 14 22 14 25 -2 43 -17 18 -32 20 -186 20 -139 0 -170 -3 -183 -16z"/>
<path d="M5832 1198 c-16 -16 -15 -50 1 -71 8 -11 30 -17 72 -19 l60 -3 -3
-144 c-2 -80 -1 -155 3 -168 7 -28 41 -44 70 -33 19 7 20 19 25 176 l5 169 50
3 c27 2 55 8 62 14 16 13 17 60 1 76 -17 17 -329 17 -346 0z"/>
<path d="M6806 1188 c-13 -18 -16 -55 -16 -200 0 -97 4 -188 10 -202 l10 -26
163 0 c171 0 187 4 187 45 0 39 -18 45 -142 45 l-118 0 0 45 0 45 94 0 c99 0
126 10 126 49 0 39 -31 51 -128 51 l-92 0 0 35 0 35 108 0 c81 0 113 4 130 16
27 19 29 60 3 74 -11 5 -85 10 -170 10 -144 0 -151 -1 -165 -22z"/>
</g>
</svg>
